<mxfile host="app.diagrams.net" modified="2023-04-28T08:54:55.651Z" agent="Mozilla/5.0 (Windows NT 10.0; Win64; x64; rv:109.0) Gecko/20100101 Firefox/112.0" etag="jnOr2FVbsXs-Hr5jNBjs" version="21.2.3" type="device">
  <diagram name="Sayfa -1" id="TEqpdStRWoEY57JyKwiI">
    <mxGraphModel dx="1050" dy="566" grid="1" gridSize="10" guides="1" tooltips="1" connect="1" arrows="1" fold="1" page="1" pageScale="1" pageWidth="827" pageHeight="1169" math="0" shadow="0">
      <root>
        <mxCell id="0" />
        <mxCell id="1" parent="0" />
        <mxCell id="jCkudOth5E_gxkg3QjN1-1" value="TrainingList" style="shape=umlFrame;whiteSpace=wrap;html=1;pointerEvents=0;recursiveResize=0;container=1;collapsible=0;width=186;height=20;" vertex="1" parent="1">
          <mxGeometry x="14" y="10" width="556" height="760" as="geometry" />
        </mxCell>
        <mxCell id="jCkudOth5E_gxkg3QjN1-2" value="&lt;div&gt;User&lt;/div&gt;&lt;div&gt;&lt;br&gt;&lt;/div&gt;" style="shape=umlActor;verticalLabelPosition=bottom;verticalAlign=top;html=1;outlineConnect=0;" vertex="1" parent="jCkudOth5E_gxkg3QjN1-1">
          <mxGeometry x="40" y="100" width="30" height="60" as="geometry" />
        </mxCell>
        <mxCell id="jCkudOth5E_gxkg3QjN1-5" value="" style="html=1;points=[];perimeter=orthogonalPerimeter;fillColor=strokeColor;align=left;verticalAlign=top;spacingLeft=10;" vertex="1" parent="jCkudOth5E_gxkg3QjN1-1">
          <mxGeometry x="253.5" y="190" width="5" height="130" as="geometry" />
        </mxCell>
        <mxCell id="jCkudOth5E_gxkg3QjN1-7" value="" style="html=1;verticalAlign=bottom;labelBackgroundColor=none;endArrow=none;endFill=0;rounded=0;dashed=1;" edge="1" parent="jCkudOth5E_gxkg3QjN1-1" source="jCkudOth5E_gxkg3QjN1-19">
          <mxGeometry width="160" relative="1" as="geometry">
            <mxPoint x="54.5" y="649" as="sourcePoint" />
            <mxPoint x="54.5" y="190" as="targetPoint" />
            <Array as="points" />
          </mxGeometry>
        </mxCell>
        <mxCell id="jCkudOth5E_gxkg3QjN1-9" value=":TrainingList" style="shape=umlLifeline;perimeter=lifelinePerimeter;whiteSpace=wrap;html=1;container=1;dropTarget=0;collapsible=0;recursiveResize=0;outlineConnect=0;portConstraint=eastwest;newEdgeStyle={&quot;edgeStyle&quot;:&quot;elbowEdgeStyle&quot;,&quot;elbow&quot;:&quot;vertical&quot;,&quot;curved&quot;:0,&quot;rounded&quot;:0};" vertex="1" parent="jCkudOth5E_gxkg3QjN1-1">
          <mxGeometry x="206" y="100" width="100" height="550" as="geometry" />
        </mxCell>
        <mxCell id="jCkudOth5E_gxkg3QjN1-10" value="open_TrainingList()" style="html=1;verticalAlign=bottom;labelBackgroundColor=none;endArrow=block;endFill=1;rounded=0;" edge="1" parent="jCkudOth5E_gxkg3QjN1-1" target="jCkudOth5E_gxkg3QjN1-9">
          <mxGeometry x="0.0025" width="160" relative="1" as="geometry">
            <mxPoint x="56" y="200" as="sourcePoint" />
            <mxPoint x="226" y="200" as="targetPoint" />
            <mxPoint as="offset" />
          </mxGeometry>
        </mxCell>
        <mxCell id="jCkudOth5E_gxkg3QjN1-18" value="" style="html=1;verticalAlign=bottom;labelBackgroundColor=none;endArrow=none;endFill=0;rounded=0;dashed=1;" edge="1" parent="jCkudOth5E_gxkg3QjN1-1" target="jCkudOth5E_gxkg3QjN1-19">
          <mxGeometry width="160" relative="1" as="geometry">
            <mxPoint x="54.5" y="730" as="sourcePoint" />
            <mxPoint x="68.5" y="200" as="targetPoint" />
          </mxGeometry>
        </mxCell>
        <mxCell id="jCkudOth5E_gxkg3QjN1-19" value="" style="html=1;points=[];perimeter=orthogonalPerimeter;fillColor=strokeColor;align=left;verticalAlign=top;spacingLeft=10;" vertex="1" parent="jCkudOth5E_gxkg3QjN1-1">
          <mxGeometry x="52.5" y="190" width="5" height="490" as="geometry" />
        </mxCell>
        <mxCell id="jCkudOth5E_gxkg3QjN1-20" value=":ExerciseList" style="shape=umlLifeline;perimeter=lifelinePerimeter;whiteSpace=wrap;html=1;container=1;dropTarget=0;collapsible=0;recursiveResize=0;outlineConnect=0;portConstraint=eastwest;newEdgeStyle={&quot;edgeStyle&quot;:&quot;elbowEdgeStyle&quot;,&quot;elbow&quot;:&quot;vertical&quot;,&quot;curved&quot;:0,&quot;rounded&quot;:0};" vertex="1" parent="jCkudOth5E_gxkg3QjN1-1">
          <mxGeometry x="416" y="100" width="100" height="550" as="geometry" />
        </mxCell>
        <mxCell id="jCkudOth5E_gxkg3QjN1-21" value="" style="html=1;points=[];perimeter=orthogonalPerimeter;fillColor=strokeColor;align=left;verticalAlign=top;spacingLeft=10;" vertex="1" parent="jCkudOth5E_gxkg3QjN1-1">
          <mxGeometry x="463.5" y="260" width="5" height="220" as="geometry" />
        </mxCell>
        <mxCell id="jCkudOth5E_gxkg3QjN1-24" value="View_Exercises()" style="html=1;verticalAlign=bottom;labelBackgroundColor=none;endArrow=none;endFill=0;rounded=0;entryX=0.5;entryY=0.19;entryDx=0;entryDy=0;entryPerimeter=0;startArrow=block;startFill=1;exitX=1.5;exitY=0;exitDx=0;exitDy=0;exitPerimeter=0;" edge="1" parent="jCkudOth5E_gxkg3QjN1-1" source="jCkudOth5E_gxkg3QjN1-25">
          <mxGeometry x="0.0025" width="160" relative="1" as="geometry">
            <mxPoint x="256" y="310" as="sourcePoint" />
            <mxPoint x="463.5" y="310.5" as="targetPoint" />
            <mxPoint as="offset" />
          </mxGeometry>
        </mxCell>
        <mxCell id="jCkudOth5E_gxkg3QjN1-25" value="" style="html=1;points=[];perimeter=orthogonalPerimeter;fillColor=strokeColor;align=left;verticalAlign=top;spacingLeft=10;" vertex="1" parent="jCkudOth5E_gxkg3QjN1-1">
          <mxGeometry x="253.5" y="310" width="5" height="180" as="geometry" />
        </mxCell>
        <mxCell id="jCkudOth5E_gxkg3QjN1-26" value="Create_New_Training()" style="html=1;verticalAlign=bottom;labelBackgroundColor=none;endArrow=block;endFill=1;rounded=0;" edge="1" parent="jCkudOth5E_gxkg3QjN1-1">
          <mxGeometry x="0.0025" width="160" relative="1" as="geometry">
            <mxPoint x="53.5" y="260" as="sourcePoint" />
            <mxPoint x="253.5" y="260" as="targetPoint" />
            <mxPoint as="offset" />
          </mxGeometry>
        </mxCell>
        <mxCell id="jCkudOth5E_gxkg3QjN1-27" value="open_List()" style="html=1;verticalAlign=bottom;labelBackgroundColor=none;endArrow=block;endFill=1;rounded=0;entryX=0.5;entryY=0.19;entryDx=0;entryDy=0;entryPerimeter=0;" edge="1" parent="jCkudOth5E_gxkg3QjN1-1">
          <mxGeometry x="0.0025" width="160" relative="1" as="geometry">
            <mxPoint x="253.5" y="260" as="sourcePoint" />
            <mxPoint x="463.5" y="260" as="targetPoint" />
            <mxPoint as="offset" />
          </mxGeometry>
        </mxCell>
        <mxCell id="jCkudOth5E_gxkg3QjN1-29" value="Add_Exercise()" style="html=1;verticalAlign=bottom;labelBackgroundColor=none;endArrow=block;endFill=1;rounded=0;" edge="1" parent="jCkudOth5E_gxkg3QjN1-1">
          <mxGeometry x="0.0025" width="160" relative="1" as="geometry">
            <mxPoint x="57.5" y="374.5" as="sourcePoint" />
            <mxPoint x="250" y="374.5" as="targetPoint" />
            <mxPoint as="offset" />
          </mxGeometry>
        </mxCell>
        <mxCell id="jCkudOth5E_gxkg3QjN1-30" value="Add_List()" style="html=1;verticalAlign=bottom;labelBackgroundColor=none;endArrow=block;endFill=1;rounded=0;entryX=0.5;entryY=0.944;entryDx=0;entryDy=0;entryPerimeter=0;" edge="1" parent="jCkudOth5E_gxkg3QjN1-1" target="jCkudOth5E_gxkg3QjN1-25">
          <mxGeometry x="0.0025" width="160" relative="1" as="geometry">
            <mxPoint x="52.5" y="479" as="sourcePoint" />
            <mxPoint x="245" y="479" as="targetPoint" />
            <mxPoint as="offset" />
          </mxGeometry>
        </mxCell>
      </root>
    </mxGraphModel>
  </diagram>
</mxfile>
